<svg viewBox="0 0 224 256" xmlns="http://www.w3.org/2000/svg" xml:space="preserve" style="fill-rule:evenodd;clip-rule:evenodd;stroke-linejoin:round;stroke-miterlimit:2"><path d="m203.23 238.793-.722.238.648-3.668.121 2.27-.047 1.16ZM116.609 125.907l-1.23-.493 1.098-1.344.953.512-.821 1.325ZM120.285 122.969l-1.535-.094-.23-3.098 1.562.868.203 2.324ZM124.355 110.027l-.164.684-1.277-2.512.809.613.632 1.215ZM132.391 102.812l-2.462-.644 1.891-6.453 1.868.527-1.297 6.57Z" style="fill-rule:nonzero"/><path d="m155.211 95.461 5.785 3.738 7.625 1.379 3.098 5.074 4.797.301 15.769 8.293 3.563 9.348-4.176-1.332-1.152 2.75 4.597 7.523-.23 18.078-5.532 3.641-1.464 8.051-7.606 3.074-2.019 10.367 7.679 4.508 3.891-4.781 1.383.882 4.16-7.925-1.984-.742 4.308-2.704 8.445-3.675 5.985 3.359 3.269 6.551 7.61 30.988-2.52 15.754-3.324 2.582.191-4.867-5.273 1.367 1.277 2.016-2.554 1.75-.547 6.097-6.684 5.555-1.719 6.465.516 3.476-8.094 11.219L155.105 256l-.043-2.293-60.304.133 5.531-4.539 8.223-14.875 4.707-17.867-.215-11.582-2.844-8.625 2.067-1.883-2.903.484-5.273-14.57 3.078-7.637-2.262-10.297 7.153-11.441-.02-12.348 4.98-2.543.45-6.429 3.906-2.637 2.945 1.156 7.453-10.352-2.63 14.27 1.396 2.637 3.156-8.434-1.277 9.207 4.152-9.582.606-11.168 12.621-5.215-3.531-.894-1.868-3.153.559-4.109 3.812-4-1.457-1.84 7.938-.113ZM163.605 94.457l.473 2.117-1.93.551-3.558-3.09 5.015.422ZM134.238 94.332l-1.062.344-.242-1.41.089.156 1.215.91ZM164.086 86.938l-.141.519 1.141.809-2.277-.493 1.277-.835ZM188.734 85.738l-2.211 3.121-8.957-2.222 5.481-2.512-.145-2.352 5.832 3.965ZM171.105 76.641l-2.382-1.707.367-1.594 1.75 1.394.265 1.907ZM170.91 72.699l-1.676.071-2.804-5.239 2.097-2.57 2.051.785-1.426 3.641 1.758 3.312ZM102.191 67.328l.946 1.031-1.961-.097-.281-3.629 1.296 2.695Z" style="fill-rule:nonzero"/><path d="m51.648 44.734 2.141 2.637-1.164 8.164 2.121-3.586 7.031-3.898-4.273 5.226 4.906-3.527 8.676 1.258 4.437 2.953 6.719 12.023L86.234 67l6.321-1.855 3.015 3.652 3.344-1.59 2.719 2.539 13.992-9.902 16.902.234 15.371-4.183-2.214 11.089 6.011 1.813 4.407-1.828 2.414 3.043 6.296-3.403 4.508 9.95-2.14 1.586 6.359 2.347-.699 1.903 4.598 3.429-.333 1.621L162 86.098l-2.094.929-3.508-2.511-2.011 7.879-7.965-6.512-13.848-3.098-3.25 4.567-6.937.64-.594 1.817-9.137-.989-2.937 5.539-4.594 2.008-2.734 6.035-2.477-2.601 2.344-4.348 1.801.156.457-3.992-6.371.625-2.2 5.25-2.996 1.598-.523-9.203-3.043 8.746-14.465 20.504.062 2.695-3.664-3.516 1.938-7.332-5.902-.043 2.48-12.14-8.359-4.778-.227-5.062-11.035-4.016-8.434-.695-7.554-4.723-26.938-8.824-2.691-6.777L0 61.848l17.055-9.965 10.765-.832 7.43-5.301 4.383-.336 8.637-8.32.519 3.437.574.629 2.66 1.028-.375 2.546Z" style="fill-rule:nonzero"/><path d="m73.391 30.129-7.774 1.273 1.793 1.637-7.269 5.199-5.883 8.731-1.508-2.957 1.672-1.707.75-3.379-1.125 3.191-4.828-1.633.476-3.371 8.864-7.554 12.429-1.52 2.403 2.09ZM53.57.461 54.906 0l-4.972 5.75-9.883 4.812 2.34.36-8.016 1.23 2.574-4.121L53.57.461Z" style="fill-rule:nonzero"/></svg>